<?xml version="1.0" encoding="utf-8"?>
<!-- Generator: Adobe Illustrator 23.0.1, SVG Export Plug-In . SVG Version: 6.00 Build 0)  -->
<svg version="1.1" id="Layer_1" xmlns="http://www.w3.org/2000/svg" xmlns:xlink="http://www.w3.org/1999/xlink" x="0px" y="0px"
	 viewBox="0 0 982 258" style="enable-background:new 0 0 982 258;" xml:space="preserve">
<style type="text/css">
	.Graphic_x0020_Style{fill:none;}
	.st0{fill:#ffffff;}
</style>
<g>
	<g>
		<path class="st0" d="M983.1,27c-1.6,1.3-3.4,1-5.3,1c-7.2,0-14.3,0-21.5-0.1c-6,0-6.3,0.2-6.3,6.1c0,26.5,0,53,0.1,79.4
			c0,7.5,0,7.4-7.5,7.4c-5.8,0-11.7,0-17.5,0c-6.5,0-6.5,0-6.5-6.3c0-25.8,0-51.6,0.1-77.4c0-9.2,0-9.2-9.3-9.2
			c-6.7,0-13.3-0.1-20,0.1c-3.3,0.1-4.9-0.8-4.8-4.4c0.2-6.2,0.1-12.3,0.1-18.5c0-1.5,0-3,1.2-4.2c1.2-0.8,2.6-0.5,3.9-0.5
			c29.4,0,58.8,0,88.2,0c2.4,0,4.7-0.1,6,2.5c0,0.7,0,1.3,0,2c-1.2,5.4-0.2,10.8-0.5,16.2C983.4,23.1,983.9,25.1,983.1,27z"/>
		<path class="st0" d="M627,0c0.8,2,0.9,4.2,0.9,6.3c0,35.8,0,71.6,0,107.3c0,7-0.2,7.2-7.4,7.1c-7.3,0-14.6-0.1-22,0.1
			c-4,0.1-5.7-1-5.7-5.3c0.1-36.9,0.1-73.9,0-110.8c0-1.7,0.2-3.3,1.2-4.7C605,0,616,0,627,0z"/>
		<path class="st0" d="M984,3c-1.8-2.2-4.3-2-6.8-2c-30.4,0-60.8,0-91.2,0c0-0.3,0-0.7,0-1c31.7,0,63.3,0,95-0.1
			C983.5-0.1,984.5,0.5,984,3z"/>
		<path class="st0" d="M457,1c0-0.3,0-0.6,0-1c11,0,22,0,33,0c0,0.3,0,0.6,0,0.9c-1.2,1.4-2.9,1.6-4.5,1.6c-8,0.2-16,0.1-23.9,0
			C459.9,2.5,458.2,2.3,457,1z"/>
		<path class="st0" d="M411,0c0,0.3,0,0.7,0,1c-0.6,0.6-1.3,1.1-2.1,1.2c-8.5,0.7-17.1,0.6-25.6,0c-0.8-0.1-1.5-0.6-2.2-1.1
			c0-0.4-0.1-0.7-0.1-1.1C391,0,401,0,411,0z"/>
		<path class="st0" d="M553,0.9c0-0.3,0-0.6,0-0.9c9.7,0,19.3,0,29,0c0,0.4,0,0.7-0.1,1.1c-1.1,1.2-2.6,1.4-4.1,1.4
			c-7,0.2-13.9,0.2-20.9,0C555.5,2.4,554,2.2,553,0.9z"/>
		<path class="st0" d="M793,0c0,0.3,0,0.7,0,1c-1.1,1.2-2.6,1.5-4.1,1.5c-7,0.2-14,0.2-20.9,0c-1.5,0-3-0.3-4.1-1.6
			c0-0.3,0-0.6,0.1-0.9C773.7,0,783.3,0,793,0z"/>
		<path class="st0" d="M844.9,0.9c0-0.3,0-0.6,0.1-0.9c9.3,0,18.7,0,28,0c0.1,0.3,0.1,0.5,0.1,0.8c-0.4,0.5-0.9,1.1-1.5,1.2
			c-8.5,0.9-17,1.2-25.5-0.2C845.6,1.7,845.3,1.2,844.9,0.9z"/>
		<path class="st0" d="M983.1,27c0.5-7.3-0.9-14.8,0.9-22c0,7.3,0,14.7,0,22l-0.5,0L983.1,27z"/>
		<path class="st0" d="M381.1,1.1C391.1,1.1,401,1,411,1c1.7,1.5,1,3.4,1,5.2c0,16.8,0,33.6,0,50.4c0,1.6-0.3,3.2,0.6,5.1
			c2-0.9,2.7-2.7,3.7-4.1c12-17.1,24-34.3,36.1-51.4c1.3-1.9,2.6-3.9,4.7-5.1c11,0,22,0,33.1,0c2.3,2.1-0.3,3.3-1.1,4.5
			c-12.5,18.7-25.1,37.4-37.8,55.9c-2.6,3.8-2.6,6.5,0,10.2c33.4,47.4,66.8,94.8,100.1,142.3c9.6,13.6,19,27.4,28.4,41.1
			c0.5,0.8,1.5,1.4,0.8,3.4c-3.3,0-6.8,0-10.4,0c-7.2,0-14.3-0.1-21.5,0.1c-3,0.1-4.9-1-6.6-3.4c-24.4-34.8-48.8-69.6-73.2-104.3
			c-12.5-17.7-25.3-35.1-37.2-53.2c-1.6-2.4-3.1-2.8-4.9-0.2c-4.5,6.4-9,12.8-13.6,19.2c-1,1.4-1.2,3.1-1.2,4.8c0,43,0,86,0,129
			c0,0.8,0.2,1.5,0.3,2.3c0.4,0.1,0.9,0.2,1.3,0.3c12.6-36.8,25.2-73.6,37.9-110.8c3.2,1.8,4.4,4.2,5.9,6.3
			c7,9.8,13.8,19.7,20.8,29.4c1.9,2.5,1.8,4.7,0.6,7.4c-3.6,8.2-7,16.6-10.7,24.8c-1.5,3.2-0.6,4.2,2.7,4.2c9.3-0.1,18.7-0.1,28-0.1
			c2.2,0,4.5-0.2,5.9,1.8c5.8,8.1,11.5,16.2,17.2,24.2c-1.6,1.7-3.2,1.1-4.5,1.1c-18.7,0-37.3,0-56,0c-6.9,0-7,0.4-9.9,6.8
			c-5.6,12.3-1.6,10.2-15.2,10.4c-16.8,0.2-33.7,0-50.5,0.2c-3.9,0.1-5.1-1.1-5-5c0.2-12.7,0-25.3,0.2-38c0.1-3.9-1.1-5.3-5.1-5.2
			c-13.2,0.2-26.3,0.2-39.5,0c-4.1-0.1-5.6,1.3-5.6,5.5c0.2,12.3,0.1,24.7,0.1,37c0,5.5-0.2,5.7-5.5,5.7c-6.8,0-13.7-0.1-20.5,0.1
			c-3.6,0.1-5.1-0.9-5.1-4.8c0.1-37.2,0.1-74.3,0-111.5c0-3.2,1.2-4.1,4.1-4c7.7,0.1,15.3,0.1,23,0c3.4-0.1,4.1,1.5,4.1,4.6
			c-0.1,11.5,0.1,23-0.1,34.5c-0.1,4,1.3,5.2,5.2,5.2c13.2-0.2,26.3-0.2,39.5,0c4.1,0.1,5.4-1,5.3-5.3c-0.1-56.5-0.1-113,0-169.5
			C380.9,5.4,381,3.3,381.1,1.1z"/>
		<path class="st0" d="M66.9,7.4c-3.1,5.9-6.2,11.3-8.7,17.1c-17.8,42.1-15.3,83,6.9,122.9c0.2,0.3,0.4,0.6,0.5,0.9
			c0.6,1.9,3.2,4,0.7,5.7c-2.2,1.5-3.3-1.5-4.6-2.7c-4.1-3.7-9.2-2.5-11.4,2.8c-0.7,1.7,0.4,2.5,1.3,3.4c3.6,3.7,7.4,7.2,10.9,11
			c2.3,2.5,4,2,6.2-0.2c6.1-6.4,12.5-12.5,18.6-18.9c2.2-2.3,3.9-3.1,6.6-0.4c4.6,4.6,5.3,6,2.4,9c-5.9,6.1-11.9,12.1-18,18
			c-2.5,2.5-3.6,4.5-0.5,7.4c3.8,3.5,5,3.8,8.3,0.7c5.9-5.7,11.7-11.4,17.4-17.2c2.4-2.5,4.4-4.4,7.7-0.8c4.4,4.8,4.9,6,1.1,9.9
			c-5.7,5.8-11.4,11.7-17.4,17.2c-2.9,2.7-3.2,4.5-0.1,7.2c3.6,3.2,6.9,6.8,10.2,10.3c3.4,3.6,5.1,0.3,7.3-1.6
			c2.2-1.9,3.9-3.8,0.7-6.4c-1.3-1-2.3-2.4-3.4-3.6c-0.8-0.8-1.8-1.7-0.7-3c0.9-1,2.1-1,3.2-0.4c2.8,1.4,5.7,2.8,8.5,4.3
			c44,22.7,87.7,21.1,131.1-1.9c0.9-0.5,1.8-1,2.7-1.4c0.3-0.1,0.6-0.2,1-0.2c1.3,1.1,0.3,2.1-0.3,3c-24,34.3-56.8,54-98.4,58.9
			c-34.3,4-65.8-4.1-94.2-23.8c-5.4-3.7-5.3-3.8-0.8-8.3c2.9-2.9,6-5.8,8.8-8.9c2.2-2.4,3.9-2.5,6.1-0.1c3.5,3.8,7.3,7.3,10.9,11
			c2.2,2.3,4,2.7,6.1,0.1c0.8-1,1.8-1.9,2.8-2.8c1.9-1.7,1.8-3.3,0-5.1c-6.6-6.6-13.3-13.1-19.8-19.8c-2.6-2.6-4.3-1.2-6.2,0.8
			c-11.3,11.4-22.6,22.7-33.9,34c-4.8,4.8-4.9,4.8-8.2,1.5c-4.7-4.7-4.7-6.1-0.2-10.6c10.9-11,21.9-21.9,32.9-32.8
			c4.2-4.2,4.2-4.2,0.1-8.3c-6-6-12.1-12-18-18c-2-2-3.7-2.8-5.7-0.3c-1.9,2.4-6.1,4.2-2.7,8.2c3.3,3.7,6.8,7.3,10.6,10.6
			c3.2,2.8,2.6,4.7-0.2,7.2c-3.1,2.7-6.1,5.7-8.8,8.8c-2.7,3.3-4.5,2.7-6.9-0.4c-9.8-12.9-16.7-27.3-21-42.8
			C-7.3,102.5,15.6,40.3,63.7,8C64.4,7.5,65,6.9,66.9,7.4z"/>
		<path class="st0" d="M58.6,79c0.3-12.9,1.8-25.2,5.4-37.3c1.2-3.8,3.2-6.8,6.4-9.2C109,3.7,150.1,0,193.6,19.8
			c5.1,2.3,5.1,2.8,1,6.9c-37.9,37.9-75.9,75.8-113.8,113.6c-3.8,3.8-4.2,3.7-6.7-0.9C63.8,120.5,58.8,100.2,58.6,79z"/>
		<path class="st0" d="M185,203.9c-22.2,0.1-42.6-5.4-61.8-15.6c-4.2-2.2-4.3-2.5-0.8-5.9c38.4-38.2,76.8-76.3,115.2-114.6
			c2.8-2.8,4.1-2.3,5.7,1c17.1,36.4,17.4,72.4-2.4,107.8c-11.7,21-13.2,21.5-37,25.8C197.5,203.4,191.1,204.1,185,203.9z"/>
		<path class="st0" d="M553,0.9c9.7,0.1,19.3,0.1,29,0.2c1.3,1.6,1,3.5,1,5.3c0,36.1,0,72.3,0,108.4c0,6-0.1,6-6.2,6
			c-6.2,0-12.3-0.2-18.5,0.1c-3.7,0.2-6.2-1.1-8.3-4.1c-14.5-19.9-29.1-39.8-43.7-59.7c-0.8-1-1.2-2.5-3.6-2.6c0,24.3,0,48.6,0,73.6
			c-2.7-1.3-3.5-3-4.6-4.4c-8.2-11.6-16.3-23.2-24.5-34.7c-1.8-2.6-2.7-5.2-2.7-8.3c0.1-10,0.1-20,0-30c0-2.8,0.6-5.2,2.2-7.5
			c8.7-12.8,17.4-25.7,26.1-38.5c2.7-4,3.5-4,6.5-0.1c13.8,18.4,27.6,36.8,41.4,55.1c1,1.3,1.8,2.8,4.7,4.3c0-6.8,0-12.8,0-18.8
			c0-12.8-0.1-25.6-0.1-38.5C551.5,4.9,551.1,2.6,553,0.9z"/>
		<path class="st0" d="M844.9,0.9c9.4,0,18.8-0.1,28.2-0.1c1.9,1.2,1.6,3.1,1.6,4.9c0,36.6,0,73.3,0.1,109.9c0,4.2-1.7,5.5-5.7,5.4
			c-6.8-0.2-13.7-0.2-20.5,0c-3.8,0.1-5.5-1.2-5.4-5.2c0.2-11.8,0.1-23.6,0.4-35.5c0.1-6.8-0.4-7.5-7.1-7.5c-12.2,0-24.3,0-36.5,0
			c-5.8,0-6.1,0.3-6.1,6.3c0,11.8,0.1,23.6,0.1,35.5c0,6.3-0.1,6.3-6.5,6.3c-6.3,0-12.7,0-19,0c-5.5,0-5.7-0.1-5.7-5.5
			c0-13.8,0-27.6,0-41.5c0-22.5,0-45,0-67.4c0-1.9-0.7-4,1.1-5.6c9.7,0,19.4,0.1,29.1,0.1c1.7,1.4,1.1,3.4,1.1,5.2
			c0,11.2,0.1,22.3-0.1,33.5c-0.1,3.9,0.9,5.7,5.3,5.6c13.1-0.2,26.3-0.2,39.5,0c4,0.1,5.2-1.4,5.1-5.3c-0.2-11.2-0.1-22.3-0.1-33.5
			C843.7,4.6,843.1,2.5,844.9,0.9z"/>
		<path class="st0" d="M724.6,51.8c7.8,0,15.7,0.1,23.5-0.1c3.4-0.1,4.8,1,4.8,4.5c-0.1,12.8-0.1,25.7,0,38.5c0,3.2-1.5,5.3-3.7,7.3
			c-21.2,18.8-45.6,23.2-72.2,14.9c-26.2-8.2-41.9-32.4-38.9-63.5c2.5-26.2,22.1-47,49.5-51.5c20.6-3.4,39.5-0.3,54.9,15.4
			c10.1,10.4,10,11-2.6,17.7c-3.5,1.9-7.2,3.6-10.6,5.6c-2.4,1.4-4.2,1.4-5.9-1.1c-7.6-10.9-21.4-14.6-33.3-10.3
			c-12.5,4.5-20.8,16.2-21.2,29.9c-0.9,27.3,24.7,43.5,48.8,30.8c0.7-0.4,1.5-0.8,2.2-1.2c2.9-1.9,2.7-4.9,2.3-7.7
			c-0.5-3.3-3.3-2.1-5.3-2.1c-5.5-0.1-11-0.2-16.5,0c-3.2,0.1-4.5-1.2-4.5-4.4c0.1-6,0.1-12,0-18c-0.1-3.5,1.3-4.7,4.7-4.7
			C708.6,51.9,716.6,51.8,724.6,51.8z"/>
		<path class="st0" d="M699.2,184c2.1-0.2,2.6-1.8,3.4-3c9.6-12.7,19.3-25.5,28.8-38.3c2.4-3.2,5-4.9,9.2-4.8
			c10.6,0.2,21.2,0.1,31.5,0.1c0.9,2.1-0.4,2.7-1.1,3.5c-13.5,16.1-26.9,32.2-40.5,48.2c-2.8,3.3-2.7,5.8,0,9.1
			c13.7,17.6,27.3,35.3,40.9,53c1.3,1.7,2.5,3.4,3.8,5.1c-2,1.6-3.9,1-5.6,1c-9,0.1-18-0.1-27,0.2c-3.8,0.1-6.1-1.1-8.2-4.2
			c-8-11.9-16.2-23.6-24.4-35.3c-1-1.5-1.8-3.3-3.8-4.1c-5.9,4.2-8.5,10-8,17.2c0.6,7.3-0.2,14.6,0,22c0.1,3.4-1,4.8-4.6,4.7
			c-7-0.2-14,0-21-0.1c-5.8,0-5.9-0.1-5.9-5.9c0-31.5,0-63,0-94.4c0-4.8,0.1-9.7-0.1-14.5c-0.2-3.8,1.1-5.5,5.1-5.4
			c7.2,0.2,14.3,0.2,21.5,0c3.7-0.1,5,1.3,4.9,5c-0.2,12.3-0.1,24.6,0,37C698.4,181.3,697.9,182.7,699.2,184z"/>
		<path class="st0" d="M827.1,258.2c-16.9,0.6-32.3-3.6-46-13.7c-4.9-3.6-5.2-4.4-1.9-9.2c3.4-5,6.9-9.8,10.2-14.8
			c1.8-2.7,3.4-3,6-0.7c8.5,7.8,18.8,11.8,30.3,12.7c5.1,0.4,10,0,14.6-2.3c2.8-1.4,5-3.2,5.1-6.8c0.1-3.7-2.3-5.3-5.2-6.5
			c-7.5-3.4-15.8-3.9-23.7-6c-9.7-2.5-19.5-4.9-27.1-12c-15.5-14.7-12.1-42.3,6.4-53c20.2-11.5,40.9-9.7,61.6-1.8
			c4.5,1.7,8.7,4.1,12.7,6.9c2.9,2,3.6,3.8,1.1,6.8c-4,4.7-7.6,9.7-11.2,14.7c-2,2.8-3.9,2.9-6.6,0.9c-9.1-6.5-19.4-9.4-30.5-9.6
			c-2.9-0.1-5.7,0.4-8.2,1.8c-4.8,2.7-4.9,8.4-0.2,11.1c5.1,3,11,3.7,16.7,5c8.1,1.9,16.3,3.5,24,6.9c11.8,5.3,20.2,13.2,21.2,27.2
			c1.1,15.5-4.1,27.8-17.8,35.8C848.7,257.4,838.1,258.7,827.1,258.2z"/>
		<path class="st0" d="M605.7,258c-2.3,0-4.7,0-7,0c-5.3,0-9-2.4-12-6.8c-13.1-19.1-26.3-38.1-39.6-57c-2.4-3.5-3-6.7-2-10.8
			c6.3-26.8,24.5-40.1,50.4-44.7c22.3-4,46.8,4.7,58.8,25.1c3.1,5.3,3.2,5.7-2.5,8.4c-5.6,2.7-11.2,5.2-16.7,7.9
			c-2.6,1.3-4.2,1-5.8-1.5c-8.8-14-20.5-15.7-33.2-12.2c-12.4,3.4-21.3,15.7-21.9,29.3c-0.9,20.5,13.2,36,32.6,35.5
			c9.4-0.2,16.6-4.7,21.7-12.3c2.3-3.5,4.3-4.3,8.1-2.2c4.9,2.7,10.2,4.9,15.3,7.3c5.3,2.5,5.6,3.3,2.6,8.1
			C643,250,626.7,258.5,605.7,258z"/>
		<path class="st0" d="M142,130c2.6,1.6,4.7,3.7,6.3,6.2c1.2,1.9,0.2,3.6-1.2,4.9c-6.8,6.8-13.7,13.6-20.6,20.3
			c-0.4,0.4-1.2,1.1-1.6,1c-3.1-0.8-4.6-3.6-6.5-5.8c-1.2-1.4-0.9-3.2,0.5-4.5c7-7,14.1-14.1,21.2-21
			C140.6,130.6,141.3,130.4,142,130z"/>
		<path class="st0" d="M141.4,112.7c-0.2-0.1-0.4-0.1-0.5-0.2c-7.8-8.7-9.1-7.2,0-16.2c4.8-4.8,9.7-9.5,14.4-14.5
			c2.3-2.4,4.4-2.8,6.6-0.1c2,2.4,5.9,4.6,2.4,8.2C156.9,97.8,149.1,105.2,141.4,112.7z"/>
		<path class="st0" d="M131.9,120.6c-0.1,2.2-1.4,3.3-2.6,4.5c-6.1,6.1-12.3,12.1-18.2,18.4c-2.7,2.9-4.4,2.3-6.8-0.2
			c-2.4-2.5-5.3-4.6-2-8.2c3.8-4.1,7.9-8,11.9-12.1c2.3-2.4,4.6-4.7,7-7c1.4-1.3,2.7-3.6,4.9-2.1
			C128.7,115.6,131.3,117.6,131.9,120.6z"/>
		<path class="st0" d="M158.8,130.3c-1.6-2-2.5-3.2-3.5-4.3c-4.7-5.4-4.6-5.4,0.3-10.2c5.7-5.6,11.4-11.2,16.9-16.8
			c2.1-2.2,4.1-2.9,6.2-0.3c2,2.5,6.4,4.6,2.6,8.6C174.2,114.9,166.6,122.4,158.8,130.3z"/>
		<path class="st0" d="M226.3,61c-2.6-1.1-4.5-3.3-6.1-5.8c-1.2-1.9-0.2-3.8,1.3-5.4c6.6-6.6,13.2-13.2,19.7-19.8
			c1.6-1.6,2.9-1.9,4.5,0c1.1,1.3,2.3,2.4,3.5,3.6c2.3,2.2,2.1,4.2-0.1,6.4c-6.5,6.4-13,12.9-19.5,19.4C228.7,60.1,228,61,226.3,61z
			"/>
		<path class="st0" d="M200.1,53.2c-0.1,1.5-1.2,2.3-2.1,3.2c-6.4,6.5-12.9,13-19.3,19.5c-1.8,1.9-3.6,3.2-5.7,0.6
			c-2.1-2.5-6.6-4.7-3.2-8.6c6.6-7.4,13.9-14.3,20.9-21.3c0.4-0.4,1.2-0.7,1.8-0.8C193.9,45.8,200.1,51.8,200.1,53.2z"/>
		<path class="st0" d="M233.7,19.5c-0.2,2-1.6,3.1-2.7,4.3c-6,6-12,12-18,18.1c-2,2-3.5,3.3-6.1,0.6c-4.5-4.5-5.3-6.2-2.6-9.1
			c6.4-6.8,13.1-13.3,19.7-19.9c1.7-1.8,3.4-2,5.1-0.1C230.7,15.4,233.3,16.7,233.7,19.5z"/>
		<path class="st0" d="M216.8,69.7c-0.1,2.4-1.4,3.6-2.5,4.8c-6.1,6.1-12.3,12.1-18.2,18.4c-2.7,2.9-4.5,2.2-6.9-0.2
			c-2.4-2.5-5.2-4.8-1.9-8.3c3.9-4.1,7.9-8,11.9-12.1c2.2-2.2,4.4-4.5,6.7-6.7c1.4-1.3,2.6-3.8,4.9-2.3
			C213.3,65,215.6,67.2,216.8,69.7z"/>
		<path class="st0" d="M252.2,3.9c1.9,0.1,7.7,5.6,7.7,7.2c-0.1,2-5.8,7.1-7.7,7c-2.1-0.2-7.7-5.4-7.7-7.2
			C244.4,9.1,250.2,3.8,252.2,3.9z"/>
		<path class="st0" d="M108,215c1.6,0,7.1,5.4,7.1,7c0,1.6-5.5,7.2-7,7.2c-1.8,0-7.2-5.4-7.1-7C101.2,220.5,106.5,215,108,215z"/>
		<path class="st0" d="M49,154.8c-2,1.8-3.8,3.1-5.2,4.6c-2.4,2.5-4.5,2.7-7.1,0c-4.2-4.4-3.4-8.6,2.4-11c1.4-0.6,2.6-0.2,3.6,0.8
			C44.7,150.9,46.6,152.7,49,154.8z"/>
	</g>
</g>
</svg>