<svg id="Layer_1" data-name="Layer 1" xmlns="http://www.w3.org/2000/svg" viewBox="0 0 980.63 259.49"><defs><style>.cls-1{fill:#fff;}</style></defs><path class="cls-1" d="M980.29,26.35c-1.6,1.3-3.4,1-5.3,1-7.2,0-14.3,0-21.5-.1-6,0-6.3.2-6.3,6.1q0,39.75.1,79.4c0,7.5,0,7.4-7.5,7.4h-17.5c-6.5,0-6.5,0-6.5-6.3q0-38.7.1-77.4c0-9.2,0-9.2-9.3-9.2-6.7,0-13.3-.1-20,.1-3.3.1-4.9-.8-4.8-4.4.2-6.2.1-12.3.1-18.5,0-1.5,0-3,1.2-4.2,1.2-.8,2.6-.5,3.9-.5h88.2c2.4,0,4.7-.1,6,2.5v2c-1.2,5.4-.2,10.8-.5,16.2C980.59,22.45,981.09,24.45,980.29,26.35Z" transform="translate(-0.68 0.75)"/><path class="cls-1" d="M624.19-.65a16.9,16.9,0,0,1,.9,6.3V113c0,7-.2,7.2-7.4,7.1s-14.6-.1-22,.1c-4,.1-5.7-1-5.7-5.3.1-36.9.1-73.9,0-110.8a7.71,7.71,0,0,1,1.2-4.7Z" transform="translate(-0.68 0.75)"/><path class="cls-1" d="M981.19,2.35c-1.8-2.2-4.3-2-6.8-2h-91.2v-1c31.7,0,63.3,0,95-.1C980.69-.75,981.69-.15,981.19,2.35Z" transform="translate(-0.68 0.75)"/><path class="cls-1" d="M454.19.35v-1h33v.9c-1.2,1.4-2.9,1.6-4.5,1.6-8,.2-16,.1-23.9,0C457.09,1.85,455.39,1.65,454.19.35Z" transform="translate(-0.68 0.75)"/><path class="cls-1" d="M408.19-.65v1a3.75,3.75,0,0,1-2.1,1.2,168.28,168.28,0,0,1-25.6,0,5.08,5.08,0,0,1-2.2-1.1c0-.4-.1-.7-.1-1.1Z" transform="translate(-0.68 0.75)"/><path class="cls-1" d="M550.19.25v-.9h29a4.1,4.1,0,0,1-.1,1.1,5.18,5.18,0,0,1-4.1,1.4c-7,.2-13.9.2-20.9,0C552.69,1.75,551.19,1.55,550.19.25Z" transform="translate(-0.68 0.75)"/><path class="cls-1" d="M790.19-.65v1a5.26,5.26,0,0,1-4.1,1.5c-7,.2-14,.2-20.9,0a5,5,0,0,1-4.1-1.6,2.77,2.77,0,0,1,.1-.9Z" transform="translate(-0.68 0.75)"/><path class="cls-1" d="M842.09.25a2.77,2.77,0,0,1,.1-.9h28a2.2,2.2,0,0,1,.1.8,2.89,2.89,0,0,1-1.5,1.2c-8.5.9-17,1.2-25.5-.2C842.79,1.05,842.49.55,842.09.25Z" transform="translate(-0.68 0.75)"/><path class="cls-1" d="M980.29,26.35c.5-7.3-.9-14.8.9-22v22h-.9Z" transform="translate(-0.68 0.75)"/><path class="cls-1" d="M378.29.45c10,0,19.9-.1,29.9-.1,1.7,1.5,1,3.4,1,5.2V56c0,1.6-.3,3.2.6,5.1,2-.9,2.7-2.7,3.7-4.1,12-17.1,24-34.3,36.1-51.4,1.3-1.9,2.6-3.9,4.7-5.1h33.1c2.3,2.1-.3,3.3-1.1,4.5-12.5,18.7-25.1,37.4-37.8,55.9-2.6,3.8-2.6,6.5,0,10.2q50.1,71.1,100.1,142.3c9.6,13.6,19,27.4,28.4,41.1.5.8,1.5,1.4.8,3.4h-10.4c-7.2,0-14.3-.1-21.5.1a7,7,0,0,1-6.6-3.4q-36.6-52.2-73.2-104.3c-12.5-17.7-25.3-35.1-37.2-53.2-1.6-2.4-3.1-2.8-4.9-.2-4.5,6.4-9,12.8-13.6,19.2a8,8,0,0,0-1.2,4.8v129a18.1,18.1,0,0,0,.3,2.3l1.3.3c12.6-36.8,25.2-73.6,37.9-110.8,3.2,1.8,4.4,4.2,5.9,6.3,7,9.8,13.8,19.7,20.8,29.4,1.9,2.5,1.8,4.7.6,7.4-3.6,8.2-7,16.6-10.7,24.8-1.5,3.2-.6,4.2,2.7,4.2,9.3-.1,18.7-.1,28-.1,2.2,0,4.5-.2,5.9,1.8,5.8,8.1,11.5,16.2,17.2,24.2-1.6,1.7-3.2,1.1-4.5,1.1h-56c-6.9,0-7,.4-9.9,6.8-5.6,12.3-1.6,10.2-15.2,10.4-16.8.2-33.7,0-50.5.2-3.9.1-5.1-1.1-5-5,.2-12.7,0-25.3.2-38,.1-3.9-1.1-5.3-5.1-5.2-13.2.2-26.3.2-39.5,0-4.1-.1-5.6,1.3-5.6,5.5.2,12.3.1,24.7.1,37,0,5.5-.2,5.7-5.5,5.7-6.8,0-13.7-.1-20.5.1-3.6.1-5.1-.9-5.1-4.8.1-37.2.1-74.3,0-111.5,0-3.2,1.2-4.1,4.1-4,7.7.1,15.3.1,23,0,3.4-.1,4.1,1.5,4.1,4.6-.1,11.5.1,23-.1,34.5-.1,4,1.3,5.2,5.2,5.2,13.2-.2,26.3-.2,39.5,0,4.1.1,5.4-1,5.3-5.3q-.15-84.75,0-169.5C378.09,4.75,378.19,2.65,378.29.45Z" transform="translate(-0.68 0.75)"/><path class="cls-1" d="M64.09,6.75c-3.1,5.9-6.2,11.3-8.7,17.1-17.8,42.1-15.3,83,6.9,122.9a4.05,4.05,0,0,1,.5.9c.6,1.9,3.2,4,.7,5.7-2.2,1.5-3.3-1.5-4.6-2.7-4.1-3.7-9.2-2.5-11.4,2.8-.7,1.7.4,2.5,1.3,3.4,3.6,3.7,7.4,7.2,10.9,11,2.3,2.5,4,2,6.2-.2,6.1-6.4,12.5-12.5,18.6-18.9,2.2-2.3,3.9-3.1,6.6-.4,4.6,4.6,5.3,6,2.4,9q-8.85,9.15-18,18c-2.5,2.5-3.6,4.5-.5,7.4,3.8,3.5,5,3.8,8.3.7,5.9-5.7,11.7-11.4,17.4-17.2,2.4-2.5,4.4-4.4,7.7-.8,4.4,4.8,4.9,6,1.1,9.9-5.7,5.8-11.4,11.7-17.4,17.2-2.9,2.7-3.2,4.5-.1,7.2,3.6,3.2,6.9,6.8,10.2,10.3s5.1.3,7.3-1.6,3.9-3.8.7-6.4a29,29,0,0,1-3.4-3.6c-.8-.8-1.8-1.7-.7-3a2.45,2.45,0,0,1,3.2-.4c2.8,1.4,5.7,2.8,8.5,4.3,44,22.7,87.7,21.1,131.1-1.9.9-.5,1.8-1,2.7-1.4a3,3,0,0,1,1-.2c1.3,1.1.3,2.1-.3,3q-36,51.45-98.4,58.9c-34.3,4-65.8-4.1-94.2-23.8-5.4-3.7-5.3-3.8-.8-8.3,2.9-2.9,6-5.8,8.8-8.9,2.2-2.4,3.9-2.5,6.1-.1,3.5,3.8,7.3,7.3,10.9,11,2.2,2.3,4,2.7,6.1.1a24.67,24.67,0,0,1,2.8-2.8c1.9-1.7,1.8-3.3,0-5.1-6.6-6.6-13.3-13.1-19.8-19.8-2.6-2.6-4.3-1.2-6.2.8q-17,17.1-33.9,34c-4.8,4.8-4.9,4.8-8.2,1.5-4.7-4.7-4.7-6.1-.2-10.6q16.35-16.5,32.9-32.8c4.2-4.2,4.2-4.2.1-8.3-6-6-12.1-12-18-18-2-2-3.7-2.8-5.7-.3s-6.1,4.2-2.7,8.2a117.82,117.82,0,0,0,10.6,10.6c3.2,2.8,2.6,4.7-.2,7.2a91.37,91.37,0,0,0-8.8,8.8c-2.7,3.3-4.5,2.7-6.9-.4a125.69,125.69,0,0,1-21-42.8c-15.7-56.1,7.2-118.3,55.3-150.6A3,3,0,0,1,64.09,6.75Z" transform="translate(-0.68 0.75)"/><path class="cls-1" d="M55.79,78.35a140.69,140.69,0,0,1,5.4-37.3,17.61,17.61,0,0,1,6.4-9.2c38.6-28.8,79.7-32.5,123.2-12.7,5.1,2.3,5.1,2.8,1,6.9Q134.94,82.9,78,139.65c-3.8,3.8-4.2,3.7-6.7-.9A127.11,127.11,0,0,1,55.79,78.35Z" transform="translate(-0.68 0.75)"/><path class="cls-1" d="M182.19,203.25c-22.2.1-42.6-5.4-61.8-15.6-4.2-2.2-4.3-2.5-.8-5.9q57.6-57.3,115.2-114.6c2.8-2.8,4.1-2.3,5.7,1,17.1,36.4,17.4,72.4-2.4,107.8-11.7,21-13.2,21.5-37,25.8A102.39,102.39,0,0,1,182.19,203.25Z" transform="translate(-0.68 0.75)"/><path class="cls-1" d="M550.19.25c9.7.1,19.3.1,29,.2,1.3,1.6,1,3.5,1,5.3v108.4c0,6-.1,6-6.2,6s-12.3-.2-18.5.1a8.66,8.66,0,0,1-8.3-4.1q-21.75-29.85-43.7-59.7c-.8-1-1.2-2.5-3.6-2.6v73.6c-2.7-1.3-3.5-3-4.6-4.4-8.2-11.6-16.3-23.2-24.5-34.7a14,14,0,0,1-2.7-8.3q.15-15,0-30a12.46,12.46,0,0,1,2.2-7.5c8.7-12.8,17.4-25.7,26.1-38.5,2.7-4,3.5-4,6.5-.1q20.7,27.6,41.4,55.1a11.75,11.75,0,0,0,4.7,4.3V44.55c0-12.8-.1-25.6-.1-38.5C548.69,4.25,548.29,2,550.19.25Z" transform="translate(-0.68 0.75)"/><path class="cls-1" d="M842.09.25c9.4,0,18.8-.1,28.2-.1,1.9,1.2,1.6,3.1,1.6,4.9,0,36.6,0,73.3.1,109.9,0,4.2-1.7,5.5-5.7,5.4-6.8-.2-13.7-.2-20.5,0-3.8.1-5.5-1.2-5.4-5.2.2-11.8.1-23.6.4-35.5.1-6.8-.4-7.5-7.1-7.5h-36.5c-5.8,0-6.1.3-6.1,6.3,0,11.8.1,23.6.1,35.5,0,6.3-.1,6.3-6.5,6.3h-19c-5.5,0-5.7-.1-5.7-5.5V5.85c0-1.9-.7-4,1.1-5.6,9.7,0,19.4.1,29.1.1,1.7,1.4,1.1,3.4,1.1,5.2,0,11.2.1,22.3-.1,33.5-.1,3.9.9,5.7,5.3,5.6,13.1-.2,26.3-.2,39.5,0,4,.1,5.2-1.4,5.1-5.3-.2-11.2-.1-22.3-.1-33.5C840.89,4,840.29,1.85,842.09.25Z" transform="translate(-0.68 0.75)"/><path class="cls-1" d="M721.79,51.15c7.8,0,15.7.1,23.5-.1,3.4-.1,4.8,1,4.8,4.5-.1,12.8-.1,25.7,0,38.5,0,3.2-1.5,5.3-3.7,7.3-21.2,18.8-45.6,23.2-72.2,14.9-26.2-8.2-41.9-32.4-38.9-63.5,2.5-26.2,22.1-47,49.5-51.5,20.6-3.4,39.5-.3,54.9,15.4,10.1,10.4,10,11-2.6,17.7-3.5,1.9-7.2,3.6-10.6,5.6-2.4,1.4-4.2,1.4-5.9-1.1a28.61,28.61,0,0,0-33.3-10.3c-12.5,4.5-20.8,16.2-21.2,29.9-.9,27.3,24.7,43.5,48.8,30.8.7-.4,1.5-.8,2.2-1.2,2.9-1.9,2.7-4.9,2.3-7.7-.5-3.3-3.3-2.1-5.3-2.1-5.5-.1-11-.2-16.5,0-3.2.1-4.5-1.2-4.5-4.4q.15-9,0-18c-.1-3.5,1.3-4.7,4.7-4.7C705.79,51.25,713.79,51.15,721.79,51.15Z" transform="translate(-0.68 0.75)"/><path class="cls-1" d="M696.39,183.35c2.1-.2,2.6-1.8,3.4-3,9.6-12.7,19.3-25.5,28.8-38.3,2.4-3.2,5-4.9,9.2-4.8,10.6.2,21.2.1,31.5.1.9,2.1-.4,2.7-1.1,3.5-13.5,16.1-26.9,32.2-40.5,48.2-2.8,3.3-2.7,5.8,0,9.1q20.55,26.4,40.9,53c1.3,1.7,2.5,3.4,3.8,5.1-2,1.6-3.9,1-5.6,1-9,.1-18-.1-27,.2a8.49,8.49,0,0,1-8.2-4.2c-8-11.9-16.2-23.6-24.4-35.3-1-1.5-1.8-3.3-3.8-4.1-5.9,4.2-8.5,10-8,17.2s-.2,14.6,0,22c.1,3.4-1,4.8-4.6,4.7-7-.2-14,0-21-.1-5.8,0-5.9-.1-5.9-5.9v-94.4c0-4.8.1-9.7-.1-14.5-.2-3.8,1.1-5.5,5.1-5.4,7.2.2,14.3.2,21.5,0,3.7-.1,5,1.3,4.9,5-.2,12.3-.1,24.6,0,37C695.59,180.65,695.09,182.05,696.39,183.35Z" transform="translate(-0.68 0.75)"/><path class="cls-1" d="M824.29,257.55c-16.9.6-32.3-3.6-46-13.7-4.9-3.6-5.2-4.4-1.9-9.2,3.4-5,6.9-9.8,10.2-14.8,1.8-2.7,3.4-3,6-.7,8.5,7.8,18.8,11.8,30.3,12.7,5.1.4,10,0,14.6-2.3,2.8-1.4,5-3.2,5.1-6.8s-2.3-5.3-5.2-6.5c-7.5-3.4-15.8-3.9-23.7-6-9.7-2.5-19.5-4.9-27.1-12-15.5-14.7-12.1-42.3,6.4-53,20.2-11.5,40.9-9.7,61.6-1.8a58,58,0,0,1,12.7,6.9c2.9,2,3.6,3.8,1.1,6.8-4,4.7-7.6,9.7-11.2,14.7-2,2.8-3.9,2.9-6.6.9-9.1-6.5-19.4-9.4-30.5-9.6a15.44,15.44,0,0,0-8.2,1.8c-4.8,2.7-4.9,8.4-.2,11.1,5.1,3,11,3.7,16.7,5,8.1,1.9,16.3,3.5,24,6.9,11.8,5.3,20.2,13.2,21.2,27.2,1.1,15.5-4.1,27.8-17.8,35.8C845.89,256.75,835.29,258.05,824.29,257.55Z" transform="translate(-0.68 0.75)"/><path class="cls-1" d="M602.89,257.35h-7c-5.3,0-9-2.4-12-6.8q-19.65-28.65-39.6-57a12.3,12.3,0,0,1-2-10.8c6.3-26.8,24.5-40.1,50.4-44.7,22.3-4,46.8,4.7,58.8,25.1,3.1,5.3,3.2,5.7-2.5,8.4s-11.2,5.2-16.7,7.9c-2.6,1.3-4.2,1-5.8-1.5-8.8-14-20.5-15.7-33.2-12.2-12.4,3.4-21.3,15.7-21.9,29.3-.9,20.5,13.2,36,32.6,35.5,9.4-.2,16.6-4.7,21.7-12.3,2.3-3.5,4.3-4.3,8.1-2.2,4.9,2.7,10.2,4.9,15.3,7.3,5.3,2.5,5.6,3.3,2.6,8.1C640.19,249.35,623.89,257.85,602.89,257.35Z" transform="translate(-0.68 0.75)"/><path class="cls-1" d="M139.19,129.35a19.64,19.64,0,0,1,6.3,6.2c1.2,1.9.2,3.6-1.2,4.9-6.8,6.8-13.7,13.6-20.6,20.3-.4.4-1.2,1.1-1.6,1-3.1-.8-4.6-3.6-6.5-5.8a3.12,3.12,0,0,1,.5-4.5c7-7,14.1-14.1,21.2-21A8.62,8.62,0,0,1,139.19,129.35Z" transform="translate(-0.68 0.75)"/><path class="cls-1" d="M138.59,112.05c-.2-.1-.4-.1-.5-.2-7.8-8.7-9.1-7.2,0-16.2,4.8-4.8,9.7-9.5,14.4-14.5,2.3-2.4,4.4-2.8,6.6-.1,2,2.4,5.9,4.6,2.4,8.2C154.09,97.15,146.29,104.55,138.59,112.05Z" transform="translate(-0.68 0.75)"/><path class="cls-1" d="M129.09,120c-.1,2.2-1.4,3.3-2.6,4.5-6.1,6.1-12.3,12.1-18.2,18.4-2.7,2.9-4.4,2.3-6.8-.2s-5.3-4.6-2-8.2c3.8-4.1,7.9-8,11.9-12.1,2.3-2.4,4.6-4.7,7-7,1.4-1.3,2.7-3.6,4.9-2.1C125.89,115,128.49,117,129.09,120Z" transform="translate(-0.68 0.75)"/><path class="cls-1" d="M156,129.65c-1.6-2-2.5-3.2-3.5-4.3-4.7-5.4-4.6-5.4.3-10.2,5.7-5.6,11.4-11.2,16.9-16.8,2.1-2.2,4.1-2.9,6.2-.3s6.4,4.6,2.6,8.6C171.39,114.25,163.79,121.75,156,129.65Z" transform="translate(-0.68 0.75)"/><path class="cls-1" d="M223.49,60.35c-2.6-1.1-4.5-3.3-6.1-5.8-1.2-1.9-.2-3.8,1.3-5.4,6.6-6.6,13.2-13.2,19.7-19.8,1.6-1.6,2.9-1.9,4.5,0,1.1,1.3,2.3,2.4,3.5,3.6,2.3,2.2,2.1,4.2-.1,6.4-6.5,6.4-13,12.9-19.5,19.4C225.89,59.45,225.19,60.35,223.49,60.35Z" transform="translate(-0.68 0.75)"/><path class="cls-1" d="M197.29,52.55c-.1,1.5-1.2,2.3-2.1,3.2-6.4,6.5-12.9,13-19.3,19.5-1.8,1.9-3.6,3.2-5.7.6s-6.6-4.7-3.2-8.6c6.6-7.4,13.9-14.3,20.9-21.3a3.7,3.7,0,0,1,1.8-.8C191.09,45.15,197.29,51.15,197.29,52.55Z" transform="translate(-0.68 0.75)"/><path class="cls-1" d="M230.89,18.85c-.2,2-1.6,3.1-2.7,4.3-6,6-12,12-18,18.1-2,2-3.5,3.3-6.1.6-4.5-4.5-5.3-6.2-2.6-9.1,6.4-6.8,13.1-13.3,19.7-19.9,1.7-1.8,3.4-2,5.1-.1S230.49,16.05,230.89,18.85Z" transform="translate(-0.68 0.75)"/><path class="cls-1" d="M214,69.05c-.1,2.4-1.4,3.6-2.5,4.8-6.1,6.1-12.3,12.1-18.2,18.4-2.7,2.9-4.5,2.2-6.9-.2s-5.2-4.8-1.9-8.3c3.9-4.1,7.9-8,11.9-12.1,2.2-2.2,4.4-4.5,6.7-6.7,1.4-1.3,2.6-3.8,4.9-2.3A17.42,17.42,0,0,1,214,69.05Z" transform="translate(-0.68 0.75)"/><path class="cls-1" d="M249.39,3.25c1.9.1,7.7,5.6,7.7,7.2-.1,2-5.8,7.1-7.7,7-2.1-.2-7.7-5.4-7.7-7.2S247.39,3.15,249.39,3.25Z" transform="translate(-0.68 0.75)"/><path class="cls-1" d="M105.19,214.35c1.6,0,7.1,5.4,7.1,7s-5.5,7.2-7,7.2c-1.8,0-7.2-5.4-7.1-7S103.69,214.35,105.19,214.35Z" transform="translate(-0.68 0.75)"/><path class="cls-1" d="M46.19,154.15c-2,1.8-3.8,3.1-5.2,4.6-2.4,2.5-4.5,2.7-7.1,0-4.2-4.4-3.4-8.6,2.4-11a3.06,3.06,0,0,1,3.6.8C41.89,150.25,43.79,152.05,46.19,154.15Z" transform="translate(-0.68 0.75)"/></svg>